<svg width="1200" height="630" viewBox="0 0 1200 630" fill="none" xmlns="http://www.w3.org/2000/svg">
  <rect width="1200" height="630" fill="#0F0F0F"/>
  <rect x="64" y="64" width="1072" height="502" rx="24" fill="#111111" stroke="#1A1A1A" stroke-width="2"/>
  <rect x="112" y="116" width="140" height="28" rx="14" fill="#171717"/>
  <text x="131" y="134" fill="#C8A96E" font-family="'DM Mono', monospace" font-size="14" letter-spacing="4">ATLAS</text>
  <rect x="270" y="116" width="1" height="28" fill="#2A2A2A"/>
  <text x="291" y="134" fill="#3A3A3A" font-family="'DM Mono', monospace" font-size="14" letter-spacing="3">DEVELOPER TOOLKIT</text>

  <text x="112" y="248" fill="#E8E0D4" font-family="'DM Serif Display', serif" font-size="72">Find the repo.</text>
  <text x="112" y="328" fill="#C8A96E" font-family="'DM Serif Display', serif" font-size="72">Understand it.</text>

  <text x="112" y="396" fill="#6A6A6A" font-family="'DM Sans', sans-serif" font-size="24">
    Search, analyze, map, and review public repositories with
  </text>
  <text x="112" y="430" fill="#6A6A6A" font-family="'DM Sans', sans-serif" font-size="24">
    deterministic evidence first and AI only for the last mile.
  </text>

  <rect x="112" y="480" width="176" height="40" rx="12" fill="#151515" stroke="#3B3326"/>
  <text x="136" y="505" fill="#C8A96E" font-family="'DM Mono', monospace" font-size="14" letter-spacing="2">01  REPOSCOUT</text>
  <rect x="304" y="480" width="124" height="40" rx="12" fill="#151515" stroke="#274148"/>
  <text x="329" y="505" fill="#7CB9C8" font-family="'DM Mono', monospace" font-size="14" letter-spacing="2">02  ATLAS</text>
  <rect x="444" y="480" width="108" height="40" rx="12" fill="#151515" stroke="#294032"/>
  <text x="472" y="505" fill="#8AB58A" font-family="'DM Mono', monospace" font-size="14" letter-spacing="2">03  MAP</text>
  <rect x="568" y="480" width="142" height="40" rx="12" fill="#151515" stroke="#41314B"/>
  <text x="593" y="505" fill="#9A7CB8" font-family="'DM Mono', monospace" font-size="14" letter-spacing="2">04  REVIEW</text>

  <text x="933" y="522" fill="#2A2A2A" font-family="'DM Mono', monospace" font-size="14" letter-spacing="2">codebaseatlas.com</text>

  <circle cx="1018" cy="144" r="4" fill="#C8A96E" fill-opacity="0.25"/>
  <circle cx="1042" cy="144" r="4" fill="#C8A96E" fill-opacity="0.25"/>
  <circle cx="1066" cy="144" r="4" fill="#C8A96E" fill-opacity="0.25"/>
  <circle cx="1090" cy="144" r="4" fill="#C8A96E" fill-opacity="0.25"/>
  <circle cx="1018" cy="168" r="4" fill="#C8A96E" fill-opacity="0.25"/>
  <circle cx="1042" cy="168" r="4" fill="#C8A96E" fill-opacity="0.25"/>
  <circle cx="1066" cy="168" r="4" fill="#C8A96E" fill-opacity="0.25"/>
  <circle cx="1090" cy="168" r="4" fill="#C8A96E" fill-opacity="0.25"/>
</svg>
